<svg width="78" height="78" viewBox="0 0 78 78" fill="none" xmlns="http://www.w3.org/2000/svg">
<g clip-path="url(#clip0)">
<path d="M5.00086 71.4999V75.3999C5.00086 76.836 6.1649 78 7.60091 78H70.0009C71.4369 78 72.601 76.836 72.601 75.3999V71.4999H5.00086Z" fill="#038742"/>
<path d="M5.00086 71.4999V75.3999C5.00086 76.836 6.1649 78 7.60091 78H70.0009C71.4369 78 72.601 76.836 72.601 75.3999V71.4999H5.00086Z" fill="#038742"/>
<path d="M68.9917 71.4999V75.3999C68.9917 76.836 67.8276 78 66.3916 78H70C71.436 78 72.6001 76.836 72.6001 75.3999V71.4999H68.9917Z" fill="#038742"/>
<path d="M71.3001 72.8001H6.30024C5.50909 72.8001 4.90142 72.0993 5.01331 71.3162L5.56857 67.5045L6.68459 66.3072L5.90725 65.1793L10.4975 33.6714L11.4589 32.4585L10.8369 31.3413L14.4865 6.29289L15.4143 5.31075L14.8159 4.03246L15.2407 1.11601C15.3321 0.47569 15.8806 0 16.5275 0H19.4193L20.5634 0.784708L21.7623 0H27.2306L28.2848 0.784708L29.5744 0H32.4761L33.6974 0.784708L34.8614 0H42.7652L44.0833 0.627767L45.14 0H48.0305L49.2186 0.784708L50.3768 0H55.8301L57.0453 0.627767L58.1829 0H58.6837L72.5869 71.3162C72.6989 72.0993 72.0911 72.8001 71.3001 72.8001Z" fill="#038742"/>
<path d="M72.587 71.3162L72.0332 67.5147L70.9297 66.4036L71.6955 65.1956L67.1038 33.6792L66.0187 32.6952L66.762 31.3336L63.117 6.31549L62.1856 5.30871L62.7804 4.00499L62.3595 1.11617C62.268 0.47569 61.7195 0 61.0726 0H58.1767L57.4922 0.0836499C57.7567 0.0836499 57.9766 0.0794125 58.1837 0.217207C58.4832 0.416366 58.6969 0.737469 58.7511 1.11601L68.9786 71.316C69.0905 72.0992 68.4829 72.7999 67.6917 72.7999H71.3003C72.0911 72.8001 72.6989 72.0993 72.587 71.3162Z" fill="#038742"/>
<path d="M38.8 40.1771C33.8501 40.1771 29.823 36.7331 29.823 32.5001C29.823 28.2669 33.8501 24.823 38.8 24.823C43.75 24.823 47.7771 28.2669 47.7771 32.5001C47.7771 36.7331 43.75 40.1771 38.8 40.1771ZM38.8 27.1771C35.1482 27.1771 32.1771 29.565 32.1771 32.5001C32.1771 35.4352 35.1482 37.8229 38.8 37.8229C42.4519 37.8229 45.423 35.4351 45.423 32.5001C45.423 29.5651 42.4521 27.1771 38.8 27.1771Z" fill="#FAFAFA"/>
<path d="M49.2001 58.3765C48.5499 58.3765 48.023 57.8495 48.023 57.1994C48.023 53.5477 43.8857 50.577 38.8 50.577C33.7145 50.577 29.577 53.5477 29.577 57.1994C29.577 57.8495 29.05 58.3765 28.4 58.3765C27.7499 58.3765 27.2229 57.8495 27.2229 57.1994C27.2229 52.2497 32.4164 48.2228 38.8 48.2228C45.1836 48.2228 50.3771 52.2497 50.3771 57.1994C50.3771 57.8495 49.8501 58.3765 49.2001 58.3765Z" fill="#FAFAFA"/>
<path d="M38.8 16.777C34.5668 16.777 31.1229 13.9163 31.1229 10.4C31.1229 9.74999 31.6499 9.22298 32.3 9.22298C32.95 9.22298 33.477 9.74999 33.477 10.4C33.477 12.6183 35.8649 14.4229 38.8 14.4229C41.7352 14.4229 44.123 12.6183 44.123 10.4C44.123 9.74999 44.6499 9.22298 45.3001 9.22298C45.9503 9.22298 46.4771 9.74999 46.4771 10.4C46.4771 13.9163 43.0332 16.777 38.8 16.777Z" fill="#FAFAFA"/>
<path d="M32.9102 6.3767L44.6902 6.37622C45.0315 6.37622 45.3558 6.22807 45.5794 5.97037C45.8031 5.71252 45.9037 5.37054 45.8555 5.03265L45.1375 0H42.7501L43.333 4.02226L34.2672 4.02257L34.8633 0H32.4762L31.7447 5.03328C31.6965 5.37101 31.7973 5.71315 32.0208 5.971C32.2444 6.2287 32.569 6.3767 32.9102 6.3767Z" fill="#FAFAFA"/>
<path d="M26.9144 11.577L50.6855 11.576C51.0269 11.576 51.3511 11.428 51.5748 11.1702C51.7984 10.9123 51.899 10.5703 51.8508 10.2324L50.3891 0H48.0243C48.0243 0.0550865 48.0268 0.110487 48.0348 0.166515L49.3285 9.22205L28.2714 9.22283L29.5653 0.166515C29.5733 0.110487 29.5758 0.0550865 29.5758 0H27.211L25.7491 10.2335C25.7009 10.5713 25.8017 10.9134 26.0251 11.1713C26.2488 11.429 26.5732 11.577 26.9144 11.577Z" fill="#FAFAFA"/>
<path d="M15.4 4.02288C15.2068 4.02288 15.0128 4.00907 14.8231 3.98192L14.4838 6.31141C14.4846 6.31156 14.4852 6.31172 14.486 6.31188C14.787 6.35504 15.0945 6.37701 15.4 6.37701C18.9163 6.37701 21.777 3.51628 21.777 0H19.4229C19.4229 2.21821 17.6182 4.02288 15.4 4.02288Z" fill="#FAFAFA"/>
<path d="M55.5126 72.634L54.0268 62.2332C53.944 61.6533 53.4474 61.2226 52.8615 61.2226L24.7387 61.2229C24.153 61.2229 23.6563 61.6537 23.5734 62.2336L22.0876 72.6335C22.0796 72.6895 22.0771 72.7449 22.0771 72.8H24.4419L25.7594 63.5771L51.8406 63.5766L53.1581 72.7999H55.5231C55.5229 72.7451 55.5204 72.6899 55.5126 72.634Z" fill="#FAFAFA"/>
<path d="M60.7653 72.6335L58.5367 57.0331C58.4538 56.4532 57.9573 56.0225 57.3714 56.0225L20.2285 56.023C19.6428 56.023 19.1461 56.4538 19.0632 57.0335L16.8346 72.6335C16.8266 72.6895 16.8241 72.7449 16.8241 72.7999H19.1889L21.2492 58.377L56.3504 58.3765L58.4108 72.7999H60.7758C60.7758 72.7449 60.7733 72.6895 60.7653 72.6335Z" fill="#FAFAFA"/>
<path d="M62.2 6.37701C62.5056 6.37701 62.813 6.35504 63.114 6.31188C63.1148 6.31172 63.1156 6.31156 63.1164 6.31141L62.7771 3.98192C62.5873 4.00907 62.3934 4.02288 62.2 4.02288C59.9818 4.02288 58.1771 2.21821 58.1771 0H55.823C55.823 3.51628 58.6837 6.37701 62.2 6.37701Z" fill="#FAFAFA"/>
<path d="M12.6766 72.7994C12.6766 68.9022 9.76928 65.6323 5.90773 65.1769L5.56858 67.5048C5.58113 67.5067 5.59322 67.5095 5.60593 67.5109C8.29481 67.8148 10.3225 70.0884 10.3225 72.7994V72.7999H12.6766C12.6766 72.7999 12.6766 72.7996 12.6766 72.7994Z" fill="#FAFAFA"/>
<path d="M58.1772 0H57.464C57.7288 0 57.9761 0.080668 58.1833 0.21862C58.1794 0.146113 58.1772 0.0732917 58.1772 0Z" fill="#D0E2ED"/>
<path d="M62.2 4.02287C60.853 4.02287 59.6593 3.35665 58.9289 2.33716L59.4247 5.74044C60.2642 6.14802 61.2058 6.37699 62.2 6.37699C62.5056 6.37699 62.813 6.35502 63.114 6.31186L63.1164 6.31139L62.9005 4.82923L62.7769 3.98191C62.5872 4.00906 62.3932 4.02287 62.2 4.02287Z" fill="#D0E2ED"/>
<path d="M10.4969 33.6771H67.1034L66.7603 31.323H10.8399L10.4969 33.6771Z" fill="#FAFAFA"/>
<path d="M72.0318 67.5048L71.6926 65.1769C67.8309 65.6323 64.9236 68.9022 64.9236 72.7994V72.7999H67.2775C67.2775 72.7997 67.2775 72.7996 67.2775 72.7994C67.2775 70.0884 69.3054 67.8148 71.9943 67.5109C72.007 67.5095 72.0192 67.5067 72.0318 67.5048Z" fill="#FAFAFA"/>
<path d="M66.9601 31.3229H63.3515L63.6946 33.677H67.3032L67.1701 32.7633L66.9601 31.3229Z" fill="#D0E2ED"/>
<path d="M72.2316 67.5048L71.993 65.8678L71.8925 65.1768C70.6258 65.3262 69.463 65.7799 68.4705 66.4577L68.8709 69.2059C69.7108 68.2864 70.8722 67.6602 72.1941 67.511C72.2068 67.5095 72.219 67.5067 72.2316 67.5048Z" fill="#D0E2ED"/>
</g>
<defs>
<clipPath id="clip0">
<rect width="78" height="78" fill="white"/>
</clipPath>
</defs>
</svg>
