<svg width="25" height="25" viewBox="0 0 25 25" fill="none" xmlns="http://www.w3.org/2000/svg">
<path d="M24.7716 11.5549L15.0557 1.83845C13.6465 0.429745 11.3545 0.429745 9.9453 1.83845L0.229388 11.5549C-0.0757911 11.86 -0.0757911 12.3547 0.229388 12.6599C0.534078 12.965 1.0292 12.965 1.33389 12.6599L1.95353 12.0402V21.972C1.95353 23.2124 2.95915 24.2181 4.19964 24.2181H8.10593C8.37561 24.2181 8.59421 23.9995 8.59421 23.7298V16.5032C8.59421 15.1548 9.68729 14.0617 11.0356 14.0617H13.9654C15.3137 14.0617 16.4068 15.1548 16.4068 16.5032V23.7298C16.4068 23.9995 16.6254 24.2181 16.8951 24.2181H20.8014C22.0419 24.2181 23.0475 23.2124 23.0475 21.972V12.0402L23.6671 12.6599C23.8195 12.8122 24.0197 12.8889 24.2194 12.8889C24.4191 12.8889 24.6193 12.8122 24.7716 12.6599C25.0768 12.3547 25.0768 11.86 24.7716 11.5549Z" fill="#CFD4D9"/>
</svg>
